<svg enable-background="new 0 0 512 512" height="512" viewBox="0 0 512 512" width="512" xmlns="http://www.w3.org/2000/svg"><g id="_x38_0_Profile"><g><path d="m503.931 256c0 82.617-40.389 155.717-102.452 200.744-40.869 29.672-91.175 47.187-145.48 47.187s-104.611-17.515-145.48-47.187c-62.062-45.027-102.45-118.127-102.45-200.744 0-136.922 111.009-247.931 247.931-247.931s247.931 111.009 247.931 247.931z" fill="#d7e9ff"/><path d="m330.695 149.185v53.199c0 39.248-31.761 71.008-71.008 71.008-19.623 0-37.319-7.94-50.137-20.757-12.818-12.931-20.758-30.626-20.758-50.251v-53.199z" fill="#fff"/><path d="m330.695 149.184h-122.988c-28.606 0-51.796-23.19-51.796-51.796h122.988c28.606 0 51.796 23.19 51.796 51.796z" fill="#94c1ff"/><path d="m401.48 447.467v9.278c-40.869 29.672-91.175 47.187-145.48 47.187s-104.611-17.515-145.48-47.187v-9.278c0-80.377 65.102-145.479 145.48-145.479 40.149 0 76.539 16.236 102.851 42.628 26.393 26.312 42.629 62.702 42.629 102.851z" fill="#94c1ff"/><g fill="#116fff"><path d="m256 .071c-141.117 0-255.929 114.812-255.929 255.929 0 140.213 113.662 255.929 255.929 255.929 141.988 0 255.929-115.442 255.929-255.929 0-141.117-114.812-255.929-255.929-255.929zm-137.485 452.404v-5.012c0-75.807 61.678-137.478 137.485-137.478 36.779 0 71.293 14.301 97.208 40.294 44.992 44.856 39.877 100.053 40.278 102.191-40.442 28.377-87.855 43.465-137.485 43.465-49.629-.001-97.038-15.087-137.486-43.46zm290.633-11.863c-1.683-38.461-17.265-74.358-44.631-101.643-28.922-29.008-67.458-44.98-108.517-44.98-82.326 0-149.523 65.196-153.135 146.639-54.598-45.373-86.799-113.259-86.799-184.628 0-132.299 107.635-239.934 239.934-239.934s239.934 107.635 239.934 239.934c0 71.361-32.194 139.239-86.786 184.612z"/><path d="m278.9 89.39h-122.99c-4.421 0-7.998 3.577-7.998 7.998 0 23.288 13.407 43.455 32.882 53.324v51.67c0 42.894 34.501 79.009 78.892 79.009 43.566 0 79.009-35.443 79.009-79.009v-53.196c.001-32.975-26.82-59.796-59.795-59.796zm43.8 112.992c0 34.748-28.266 63.014-63.014 63.014-35.012 0-62.897-28.37-62.897-63.014v-45.198h10.919 114.992zm-114.991-61.194c-21.424 0-39.302-15.457-43.066-35.803h114.257c21.424 0 39.302 15.457 43.066 35.803z"/><path d="m256 347.514c-4.421 0-7.998 3.577-7.998 7.998v10.731c0 4.421 3.577 7.998 7.998 7.998s7.998-3.577 7.998-7.998v-10.731c0-4.421-3.577-7.998-7.998-7.998z"/><path d="m256 396.797c-4.421 0-7.998 3.577-7.998 7.998v10.724c0 4.421 3.577 7.998 7.998 7.998s7.998-3.577 7.998-7.998v-10.724c0-4.421-3.577-7.998-7.998-7.998z"/></g></g></g></svg>